# xmcd CD database file
#
# Track frame offsets:
#	150
#	24280
#	42847
#	67112
#	90027
#	110247
#	129365
#	148610
#	164695
#	185112
#	207840
#
# Disc length: 3079 seconds
#
# Revision: 0
# Processed by: cddbd v1.5.1PL0 Copyright (c) Steve Scherf et al.
# Submitted via: CDex 1.50
#
DISCID=9a0c050b
DTITLE=高田和泉 - ブリリアント・ノーツ
DYEAR=1900
DGENRE=New Age
TTITLE0=ウインドスケイプ
TTITLE1=スペイン
TTITLE2=オランウータン
TTITLE3=白鳥
TTITLE4=ハパネラ
TTITLE5=煙が目にしみる
TTITLE6=アライブ
TTITLE7=黄色い背景の鳥
TTITLE8=イマジン
TTITLE9=リペルタンゴ
TTITLE10=エレジー
EXTD=
EXTT0=
EXTT1=
EXTT2=
EXTT3=
EXTT4=
EXTT5=
EXTT6=
EXTT7=
EXTT8=
EXTT9=
EXTT10=
PLAYORDER=
